<svg width="32" height="29" viewBox="0 0 32 29" fill="none" xmlns="http://www.w3.org/2000/svg">
<path d="M28.4753 4.056C30.3825 0.290793 30.5111 0.0822088 30.9593 0.016869C31.6029 -0.0761145 32 0.219799 32 0.793407C32 1.20806 32.0568 1.10126 24.3182 15.1141C23.0296 17.4463 21.8366 19.6138 21.6662 19.9311C21.4964 20.2477 21.3216 20.5537 21.2791 20.6115C21.2361 20.6693 21.0619 20.9752 20.8921 21.2919C20.7217 21.6085 20.49 22.0326 20.3777 22.2343C20.2647 22.436 19.7596 23.3551 19.2558 24.2762C16.4634 29.3821 16.6251 29.1157 16.4422 28.9153C16.3741 28.8405 15.6007 27.53 14.7235 26.0039C13.8458 24.4778 12.6746 22.4517 12.1196 21.5017C11.5647 20.5512 10.6544 18.973 10.097 17.9935C9.53947 17.0146 8.69731 15.5539 8.22535 14.7479C7.75339 13.9412 6.6534 12.0331 5.78003 10.5071C4.90667 8.98037 4.0926 7.56237 3.97149 7.35441C3.77796 7.02394 3.17989 5.9873 0.56601 1.4556C0.235763 0.883249 -0.0183166 0.388175 0.00103622 0.356133C0.0210133 0.324092 3.12059 0.310892 6.88814 0.327855L13.7397 0.358018L14.7797 2.25664C15.3522 3.30145 16.1182 4.67735 16.4821 5.31569C17.2213 6.61117 19.3788 10.4637 19.6828 11.0304C20.3284 12.2323 22.2799 15.635 22.3236 15.6337C22.4359 15.6299 26.2035 8.53995 28.4753 4.056Z" fill="#F3FFED"/>
<path d="M19.4167 9L21.616 11.1994L16.9394 15.8713L13.106 12.0379L6 19.144L7.35604 20.5L13.106 14.75L16.9394 18.5833L22.9673 12.5506L25.1667 14.75V9H19.4167Z" fill="#FFB42A"/>
</svg>
