<svg width="210" height="32" viewBox="0 0 210 32" fill="none" xmlns="http://www.w3.org/2000/svg">
<path d="M98.0231 0V0.347894C100.421 0.347894 101.618 1.15926 101.618 2.782V5.32813H92.6696V5.72706H101.618V11.0643C100.122 10.2993 98.6239 9.91704 97.1256 9.91704C93.5608 9.91704 90.7233 10.7284 88.6106 12.3514C86.4992 13.9745 85.0973 17.5646 85.0973 20.4401C85.0973 23.315 86.5063 26.9114 88.6342 28.5462C90.7611 30.1806 93.5904 30.9979 97.1256 30.9979C98.6239 30.9979 100.181 30.5808 101.798 29.7459C101.829 29.7459 102.03 29.9315 102.404 30.3027C102.78 30.6736 103.115 30.8584 103.415 30.8584H112.403V30.5108C110.006 30.5108 108.807 29.6994 108.807 28.0756V5.72706H112.379V5.32813H108.807V2.782C108.807 0.928111 108.208 0 107.01 0H98.0231ZM93.1717 28.6679C92.8128 28.0186 92.6323 24.3822 92.6323 20.4401C92.6323 16.6145 92.8128 12.9894 93.1717 12.2473C93.8606 10.9252 95.1785 10.2646 97.1256 10.2646C98.6529 10.2646 100.15 10.6818 101.618 11.5166V28.0411C101.618 28.5053 101.648 28.9457 101.708 29.3637C100.21 30.2213 98.6824 30.6505 97.1256 30.6505C95.2081 30.6505 93.8896 29.9896 93.1717 28.6679ZM28.1907 0V0.347894C30.5863 0.347894 31.785 1.15926 31.785 2.782V28.1027C31.785 29.7258 30.5863 30.537 28.1907 30.537V30.8846H42.5683V30.537C40.1727 30.537 38.9742 29.7258 38.9742 28.1027V11.5166C40.4421 10.6818 41.9393 10.2646 43.4669 10.2646C46.4627 10.2646 47.6143 12.4095 47.6143 16.6993V28.1027C47.6143 29.7258 46.4158 30.537 44.0188 30.537V30.8846H58.3972V30.537C56.0003 30.537 54.8032 29.7258 54.8032 28.1027V16.3519C54.8032 12.0616 51.2544 9.91704 43.4669 9.91704C41.97 9.91704 40.4714 10.2993 38.9742 11.0643V2.782C38.9742 0.928111 38.3746 0 37.1764 0H28.1907ZM19.6179 0.0114405V0.347894C21.9348 0.347894 23.0928 1.1311 23.0928 2.69809V25.0279L9.6595 0.0114405H0V0.347894C2.31796 0.347894 3.47447 1.13256 3.47447 2.70073V28.1955C3.47447 29.7641 2.31796 30.5486 0 30.5486V30.8846H8.17596V30.5486C5.86101 30.5486 4.70337 29.7641 4.70337 28.1955V3.86088L18.6145 29.8741C18.6145 29.8741 19.208 30.8846 20.588 30.8846H24.3206V26.9855V2.70073C24.3206 1.13256 25.4794 0.347894 27.7939 0.347894V0.0114405H19.6179ZM123.515 3.03104C123.515 4.14921 125.22 6.00134 134.254 7.34363C134.356 7.3759 134.408 7.24771 134.305 7.24771C127.182 6.19346 127.904 2.10409 125.066 2.10409C124.136 2.10409 123.515 2.51945 123.515 3.03104ZM63.1076 4.4716C63.1076 5.59066 64.8106 7.44366 73.8451 8.78479C73.9471 8.81735 73.9997 8.68975 73.8951 8.68975C66.7707 7.63491 67.4951 3.54553 64.6548 3.54553C63.7272 3.54553 63.1076 3.96177 63.1076 4.4716ZM123.31 5.13425C121.968 6.14566 120.109 7.33454 117.219 8.97779C117.116 9.02884 117.219 9.0793 117.322 9.05436L123.155 6.93003L129.556 9.05436C129.659 9.0793 129.761 9.02884 129.711 8.97779C126.768 7.33454 124.859 6.14566 123.466 5.13425C123.439 5.12162 123.413 5.11546 123.387 5.11546C123.361 5.11546 123.335 5.12162 123.31 5.13425ZM171.01 5.22077C171.01 8.46739 168.743 10.0907 165.868 10.0907H163.891V10.4389C166.288 10.4389 167.486 11.25 167.486 12.8733V22.3378C167.486 28.1339 170.781 31.0327 177.371 31.0327C179.438 31.0327 180.861 30.3601 181.639 29.0155L181.235 28.8771C180.516 30.0814 179.228 30.6855 177.371 30.6855C175.574 30.6855 174.676 29.4966 174.676 27.1199V10.4389H177.769V10.0907H174.676V5.22077H171.01ZM205.669 8.42251C205.11 8.65103 204.737 8.99658 204.552 9.45975C204.367 9.92292 204.424 10.3702 204.72 10.8014C205.016 11.2327 205.465 11.5195 206.067 11.6612C206.522 11.7698 206.695 11.9642 206.582 12.245C206.476 12.5119 206.179 12.7518 205.695 12.968C205.315 13.1358 204.964 13.2065 204.636 13.1851V12.8733C204.636 11.0185 204.036 10.0907 202.838 10.0907H193.852V10.4389C196.249 10.4389 197.446 11.25 197.446 12.8733V28.0756C197.446 28.54 197.476 28.9803 197.536 29.3974C196.039 30.2556 195.205 30.6855 193.647 30.6855C190.65 30.6855 189.153 29.4671 189.153 27.0328V12.8733C189.153 11.0185 188.555 10.0907 187.357 10.0907H178.371V10.4389C180.767 10.4389 181.965 11.25 181.965 12.8733V24.5985C181.965 28.8881 185.859 31.0327 193.647 31.0327C195.144 31.0327 196.009 30.616 197.627 29.7808C197.686 29.7808 197.903 29.9606 198.278 30.319C198.651 30.6789 198.975 30.8584 199.244 30.8584H208.23V30.5108C205.834 30.5108 204.636 29.6994 204.636 28.0756V13.411C205.282 13.4655 206.016 13.2751 206.84 12.8357C207.816 12.3139 208.51 11.8416 208.925 10.8024C209.11 10.34 209.054 9.58531 208.757 9.1541C208.46 8.72259 208.013 8.43571 207.411 8.29346C207.18 8.23831 206.951 8.21191 206.727 8.21191C206.367 8.21191 206.015 8.282 205.669 8.42251ZM114.36 11.4471L114.63 11.7601C116.906 10.7642 119.288 10.2646 121.774 10.2646C125.668 10.2646 127.614 12.0616 127.614 15.6561V16.525C125.876 15.9454 124.427 15.6561 122.57 15.6561C118.736 15.6561 116.077 16.2874 113.801 17.5511C111.525 18.8151 110.386 21.1805 110.386 23.2569C110.386 25.2567 111.532 27.7287 113.823 29.0504C116.114 30.3724 118.766 31.0327 122.57 31.0327C124.757 31.0327 126.268 30.6041 127.794 29.7459C127.854 29.7459 128.064 29.9315 128.424 30.3027C128.782 30.6736 129.112 30.8584 129.412 30.8584H138.399V30.5108C136.001 30.5108 134.804 29.6994 134.804 28.0756V19.1339C134.804 12.9894 130.459 9.91704 121.774 9.91704C119.228 9.91704 116.757 10.4272 114.36 11.4471ZM118.346 29.3974C117.568 28.6564 117.178 25.7154 117.178 23.2569C117.178 21.2404 117.416 18.5772 117.897 17.9512C118.795 16.6529 120.352 16.0035 122.57 16.0035C124.456 16.0035 125.907 16.3053 127.614 16.9078V23.8831C127.614 25.2048 127.644 27.926 127.705 29.3637C126.326 30.2446 124.845 30.6855 122.57 30.6855C120.682 30.6855 119.274 30.2556 118.346 29.3974ZM60.4543 11.4471L60.7217 11.7601C62.9979 10.7642 65.3801 10.2646 67.8655 10.2646C71.7605 10.2646 73.707 12.0616 73.707 15.6561V16.525C71.9693 15.9454 70.5196 15.6561 68.6624 15.6561C64.8287 15.6561 62.1689 16.2874 59.8921 17.5511C57.6162 18.8151 56.4783 21.1805 56.4783 23.2569C56.4783 25.2567 57.6239 27.7287 59.9154 29.0504C62.2064 30.3724 64.8577 31.0327 68.6624 31.0327C70.8487 31.0327 72.3601 30.6041 73.888 29.7459C73.9471 29.7459 74.1557 29.9315 74.5161 30.3027C74.8759 30.6736 75.2047 30.8584 75.5045 30.8584H84.491V30.5108C82.0935 30.5108 80.8956 29.6994 80.8956 28.0756V19.1339C80.8956 12.9894 76.5521 9.91704 67.8655 9.91704C65.3193 9.91704 62.8487 10.4272 60.4543 11.4471ZM64.438 29.3974C63.6595 28.6564 63.2716 25.7154 63.2716 23.2569C63.2716 21.2404 63.5103 18.5772 63.9889 17.9512C64.8884 16.6529 66.4459 16.0035 68.6624 16.0035C70.5495 16.0035 72.0003 16.3053 73.707 16.9078V23.8831C73.707 25.2048 73.7368 27.926 73.7973 29.3637C72.4187 30.2446 70.9383 30.6855 68.6624 30.6855C66.7755 30.6855 65.3667 30.2556 64.438 29.3974ZM149.356 10.0907V10.4389C151.752 10.4389 152.949 11.25 152.949 12.8733V28.0756C152.949 28.54 152.981 28.9803 153.039 29.3974C151.541 30.2556 150.706 30.6855 149.149 30.6855C146.154 30.6855 144.656 29.4671 144.656 27.0328V12.8733C144.656 11.0185 144.057 10.0907 142.859 10.0907H133.872V10.4389C136.269 10.4389 137.468 11.25 137.468 12.8733V24.5985C137.468 28.8881 141.361 31.0327 149.149 31.0327C150.647 31.0327 151.512 30.616 153.129 29.7808C153.189 29.7808 153.407 29.9606 153.781 30.319C154.155 30.6789 154.476 30.8584 154.746 30.8584H163.733V30.5108C161.336 30.5108 160.138 29.6994 160.138 28.0756V12.8733C160.138 11.0185 159.539 10.0907 158.34 10.0907H149.356Z" fill="#284FA7"/>
</svg>
