<svg width="549" height="46" viewBox="0 0 549 46" fill="none" xmlns="http://www.w3.org/2000/svg">
<path d="M12.951 4.887V18H9.89101V12.456H4.56301V18H1.50301V4.887H4.56301V10.368H9.89101V4.887H12.951ZM18.5552 18H15.4952V4.887H18.5552V18ZM24.145 7.227V10.287H28.267V12.537H24.145V15.66H29.527V18H21.085V4.887H29.527V7.227H24.145ZM28.969 4.041H26.953C26.845 4.041 26.713 4.023 26.557 3.987C26.401 3.945 26.239 3.825 26.071 3.627L25.621 2.925C25.591 2.883 25.561 2.844 25.531 2.808C25.507 2.772 25.483 2.733 25.459 2.691C25.435 2.733 25.408 2.772 25.378 2.808C25.354 2.844 25.327 2.883 25.297 2.925L24.847 3.627C24.679 3.825 24.517 3.945 24.361 3.987C24.205 4.023 24.073 4.041 23.965 4.041H22.039L24.235 1.539H26.773L28.969 4.041ZM27.106 20.07C27.106 20.262 27.067 20.442 26.989 20.61C26.911 20.784 26.803 20.934 26.665 21.06C26.533 21.192 26.377 21.294 26.197 21.366C26.017 21.444 25.825 21.483 25.621 21.483C25.423 21.483 25.237 21.444 25.063 21.366C24.889 21.294 24.736 21.192 24.604 21.06C24.478 20.934 24.376 20.784 24.298 20.61C24.22 20.442 24.181 20.262 24.181 20.07C24.181 19.872 24.22 19.686 24.298 19.512C24.376 19.344 24.478 19.194 24.604 19.062C24.736 18.936 24.889 18.834 25.063 18.756C25.237 18.684 25.423 18.648 25.621 18.648C25.825 18.648 26.017 18.684 26.197 18.756C26.377 18.834 26.533 18.936 26.665 19.062C26.803 19.194 26.911 19.344 26.989 19.512C27.067 19.686 27.106 19.872 27.106 20.07ZM36.0294 11.322C36.8214 11.322 37.3914 11.133 37.7394 10.755C38.0874 10.377 38.2614 9.849 38.2614 9.171C38.2614 8.871 38.2164 8.598 38.1264 8.352C38.0364 8.106 37.8984 7.896 37.7124 7.722C37.5324 7.542 37.3014 7.404 37.0194 7.308C36.7434 7.212 36.4134 7.164 36.0294 7.164H34.4454V11.322H36.0294ZM36.0294 4.887C36.9534 4.887 37.7454 4.998 38.4054 5.22C39.0714 5.436 39.6174 5.736 40.0434 6.12C40.4754 6.504 40.7934 6.957 40.9974 7.479C41.2014 8.001 41.3034 8.565 41.3034 9.171C41.3034 9.825 41.1984 10.425 40.9884 10.971C40.7784 11.517 40.4574 11.985 40.0254 12.375C39.5934 12.765 39.0444 13.071 38.3784 13.293C37.7184 13.509 36.9354 13.617 36.0294 13.617H34.4454V18H31.4034V4.887H36.0294ZM57.951 4.887V18H54.891V12.456H49.563V18H46.503V4.887H49.563V10.368H54.891V4.887H57.951ZM73.3652 11.439C73.3652 12.387 73.2002 13.269 72.8702 14.085C72.5462 14.901 72.0872 15.612 71.4932 16.218C70.8992 16.818 70.1822 17.289 69.3422 17.631C68.5082 17.973 67.5812 18.144 66.5612 18.144C65.5412 18.144 64.6112 17.973 63.7712 17.631C62.9312 17.289 62.2112 16.818 61.6112 16.218C61.0172 15.612 60.5552 14.901 60.2252 14.085C59.9012 13.269 59.7392 12.387 59.7392 11.439C59.7392 10.491 59.9012 9.609 60.2252 8.793C60.5552 7.977 61.0172 7.269 61.6112 6.669C62.2112 6.069 62.9312 5.598 63.7712 5.256C64.6112 4.914 65.5412 4.743 66.5612 4.743C67.5812 4.743 68.5082 4.917 69.3422 5.265C70.1822 5.607 70.8992 6.078 71.4932 6.678C72.0872 7.278 72.5462 7.986 72.8702 8.802C73.2002 9.618 73.3652 10.497 73.3652 11.439ZM70.2512 11.439C70.2512 10.791 70.1672 10.209 69.9992 9.693C69.8312 9.171 69.5882 8.73 69.2702 8.37C68.9582 8.01 68.5742 7.734 68.1182 7.542C67.6622 7.35 67.1432 7.254 66.5612 7.254C65.9732 7.254 65.4482 7.35 64.9862 7.542C64.5302 7.734 64.1432 8.01 63.8252 8.37C63.5132 8.73 63.2732 9.171 63.1052 9.693C62.9372 10.209 62.8532 10.791 62.8532 11.439C62.8532 12.093 62.9372 12.681 63.1052 13.203C63.2732 13.719 63.5132 14.157 63.8252 14.517C64.1432 14.877 64.5302 15.153 64.9862 15.345C65.4482 15.531 65.9732 15.624 66.5612 15.624C67.1432 15.624 67.6622 15.531 68.1182 15.345C68.5742 15.153 68.9582 14.877 69.2702 14.517C69.5882 14.157 69.8312 13.719 69.9992 13.203C70.1672 12.681 70.2512 12.093 70.2512 11.439ZM70.0892 4.041H68.0732C67.9652 4.041 67.8332 4.023 67.6772 3.987C67.5212 3.945 67.3592 3.825 67.1912 3.627L66.7412 2.925C66.7112 2.883 66.6812 2.844 66.6512 2.808C66.6272 2.772 66.6032 2.733 66.5792 2.691C66.5552 2.733 66.5282 2.772 66.4982 2.808C66.4742 2.844 66.4472 2.883 66.4172 2.925L65.9672 3.627C65.7992 3.825 65.6372 3.945 65.4812 3.987C65.3252 4.023 65.1932 4.041 65.0852 4.041H63.1592L65.3552 1.539H67.8932L70.0892 4.041ZM68.0552 20.07C68.0552 20.262 68.0162 20.442 67.9382 20.61C67.8602 20.784 67.7522 20.934 67.6142 21.06C67.4822 21.192 67.3262 21.294 67.1462 21.366C66.9662 21.444 66.7742 21.483 66.5702 21.483C66.3722 21.483 66.1862 21.444 66.0122 21.366C65.8382 21.294 65.6852 21.192 65.5532 21.06C65.4272 20.934 65.3252 20.784 65.2472 20.61C65.1692 20.442 65.1302 20.262 65.1302 20.07C65.1302 19.872 65.1692 19.686 65.2472 19.512C65.3252 19.344 65.4272 19.194 65.5532 19.062C65.6852 18.936 65.8382 18.834 66.0122 18.756C66.1862 18.684 66.3722 18.648 66.5702 18.648C66.7742 18.648 66.9662 18.684 67.1462 18.756C67.3262 18.834 67.4822 18.936 67.6142 19.062C67.7522 19.194 67.8602 19.344 67.9382 19.512C68.0162 19.686 68.0552 19.872 68.0552 20.07ZM78.2154 18H75.1554V4.887H78.2154V18ZM96.8092 11.439C96.8092 12.387 96.6442 13.263 96.3142 14.067C95.9902 14.865 95.5312 15.558 94.9372 16.146C94.3432 16.728 93.6262 17.184 92.7862 17.514C91.9522 17.838 91.0252 18 90.0052 18H84.9112V4.887H90.0052C91.0252 4.887 91.9522 5.052 92.7862 5.382C93.6262 5.712 94.3432 6.168 94.9372 6.75C95.5312 7.332 95.9902 8.025 96.3142 8.829C96.6442 9.627 96.8092 10.497 96.8092 11.439ZM93.6952 11.439C93.6952 10.791 93.6112 10.206 93.4432 9.684C93.2752 9.162 93.0322 8.721 92.7142 8.361C92.4022 7.995 92.0182 7.716 91.5622 7.524C91.1062 7.326 90.5872 7.227 90.0052 7.227H87.9712V15.66H90.0052C90.5872 15.66 91.1062 15.564 91.5622 15.372C92.0182 15.174 92.4022 14.895 92.7142 14.535C93.0322 14.169 93.2752 13.725 93.4432 13.203C93.6112 12.681 93.6952 12.093 93.6952 11.439ZM111.475 11.439C111.475 12.387 111.31 13.269 110.98 14.085C110.656 14.901 110.197 15.612 109.603 16.218C109.009 16.818 108.292 17.289 107.452 17.631C106.618 17.973 105.691 18.144 104.671 18.144C103.651 18.144 102.721 17.973 101.881 17.631C101.041 17.289 100.321 16.818 99.7206 16.218C99.1266 15.612 98.6646 14.901 98.3346 14.085C98.0106 13.269 97.8486 12.387 97.8486 11.439C97.8486 10.491 98.0106 9.609 98.3346 8.793C98.6646 7.977 99.1266 7.269 99.7206 6.669C100.321 6.069 101.041 5.598 101.881 5.256C102.721 4.914 103.651 4.743 104.671 4.743C105.691 4.743 106.618 4.917 107.452 5.265C108.292 5.607 109.009 6.078 109.603 6.678C110.197 7.278 110.656 7.986 110.98 8.802C111.31 9.618 111.475 10.497 111.475 11.439ZM108.361 11.439C108.361 10.791 108.277 10.209 108.109 9.693C107.941 9.171 107.698 8.73 107.38 8.37C107.068 8.01 106.684 7.734 106.228 7.542C105.772 7.35 105.253 7.254 104.671 7.254C104.083 7.254 103.558 7.35 103.096 7.542C102.64 7.734 102.253 8.01 101.935 8.37C101.623 8.73 101.383 9.171 101.215 9.693C101.047 10.209 100.963 10.791 100.963 11.439C100.963 12.093 101.047 12.681 101.215 13.203C101.383 13.719 101.623 14.157 101.935 14.517C102.253 14.877 102.64 15.153 103.096 15.345C103.558 15.531 104.083 15.624 104.671 15.624C105.253 15.624 105.772 15.531 106.228 15.345C106.684 15.153 107.068 14.877 107.38 14.517C107.698 14.157 107.941 13.719 108.109 13.203C108.277 12.681 108.361 12.093 108.361 11.439ZM119.755 12.987L118.54 9.396C118.45 9.168 118.354 8.901 118.252 8.595C118.15 8.283 118.048 7.947 117.946 7.587C117.856 7.953 117.76 8.292 117.658 8.604C117.556 8.916 117.46 9.186 117.37 9.414L116.164 12.987H119.755ZM124.588 18H122.23C121.966 18 121.753 17.94 121.591 17.82C121.429 17.694 121.306 17.535 121.222 17.343L120.448 15.057H115.462L114.688 17.343C114.622 17.511 114.502 17.664 114.328 17.802C114.16 17.934 113.95 18 113.698 18H111.322L116.398 4.887H119.512L124.588 18ZM137.07 4.887V18H135.486C135.252 18 135.054 17.964 134.892 17.892C134.736 17.814 134.58 17.682 134.424 17.496L128.241 9.675C128.265 9.909 128.28 10.137 128.286 10.359C128.298 10.575 128.304 10.779 128.304 10.971V18H125.622V4.887H127.224C127.356 4.887 127.467 4.893 127.557 4.905C127.647 4.917 127.728 4.941 127.8 4.977C127.872 5.007 127.941 5.052 128.007 5.112C128.073 5.172 128.148 5.253 128.232 5.355L134.469 13.23C134.439 12.978 134.418 12.735 134.406 12.501C134.394 12.261 134.388 12.036 134.388 11.826V4.887H137.07ZM151.062 4.887V18H148.002V12.456H142.674V18H139.614V4.887H142.674V10.368H148.002V4.887H151.062ZM169.221 4.887V18H167.637C167.403 18 167.205 17.964 167.043 17.892C166.887 17.814 166.731 17.682 166.575 17.496L160.392 9.675C160.416 9.909 160.431 10.137 160.437 10.359C160.449 10.575 160.455 10.779 160.455 10.971V18H157.773V4.887H159.375C159.507 4.887 159.618 4.893 159.708 4.905C159.798 4.917 159.879 4.941 159.951 4.977C160.023 5.007 160.092 5.052 160.158 5.112C160.224 5.172 160.299 5.253 160.383 5.355L166.62 13.23C166.59 12.978 166.569 12.735 166.557 12.501C166.545 12.261 166.539 12.036 166.539 11.826V4.887H169.221ZM178.065 11.205H182.727V16.74C182.055 17.232 181.338 17.589 180.576 17.811C179.82 18.033 179.028 18.144 178.2 18.144C177.12 18.144 176.136 17.976 175.248 17.64C174.366 17.298 173.61 16.83 172.98 16.236C172.35 15.636 171.864 14.928 171.522 14.112C171.18 13.29 171.009 12.399 171.009 11.439C171.009 10.461 171.171 9.564 171.495 8.748C171.819 7.926 172.281 7.218 172.881 6.624C173.487 6.03 174.216 5.568 175.068 5.238C175.926 4.908 176.883 4.743 177.939 4.743C178.485 4.743 178.998 4.788 179.478 4.878C179.958 4.968 180.399 5.091 180.801 5.247C181.209 5.403 181.581 5.589 181.917 5.805C182.253 6.021 182.553 6.255 182.817 6.507L181.935 7.848C181.797 8.058 181.617 8.187 181.395 8.235C181.179 8.283 180.945 8.229 180.693 8.073C180.453 7.929 180.225 7.806 180.009 7.704C179.799 7.596 179.583 7.509 179.361 7.443C179.139 7.377 178.905 7.329 178.659 7.299C178.413 7.269 178.137 7.254 177.831 7.254C177.261 7.254 176.748 7.356 176.292 7.56C175.836 7.758 175.446 8.04 175.122 8.406C174.804 8.772 174.558 9.213 174.384 9.729C174.21 10.239 174.123 10.809 174.123 11.439C174.123 12.135 174.219 12.753 174.411 13.293C174.603 13.833 174.873 14.289 175.221 14.661C175.575 15.033 175.995 15.318 176.481 15.516C176.973 15.708 177.516 15.804 178.11 15.804C178.476 15.804 178.806 15.768 179.1 15.696C179.4 15.624 179.691 15.528 179.973 15.408V13.419H178.677C178.485 13.419 178.335 13.368 178.227 13.266C178.119 13.164 178.065 13.035 178.065 12.879V11.205ZM196.221 4.887V18H193.161V12.456H187.833V18H184.773V4.887H187.833V10.368H193.161V4.887H196.221ZM201.825 18H198.765V4.887H201.825V18ZM207.415 7.227V10.287H211.537V12.537H207.415V15.66H212.797V18H204.355V4.887H212.797V7.227H207.415ZM212.239 4.041H210.223C210.115 4.041 209.983 4.023 209.827 3.987C209.671 3.945 209.509 3.825 209.341 3.627L208.891 2.925C208.861 2.883 208.831 2.844 208.801 2.808C208.777 2.772 208.753 2.733 208.729 2.691C208.705 2.733 208.678 2.772 208.648 2.808C208.624 2.844 208.597 2.883 208.567 2.925L208.117 3.627C207.949 3.825 207.787 3.945 207.631 3.987C207.475 4.023 207.343 4.041 207.235 4.041H205.309L207.505 1.539H210.043L212.239 4.041ZM210.376 20.07C210.376 20.262 210.337 20.442 210.259 20.61C210.181 20.784 210.073 20.934 209.935 21.06C209.803 21.192 209.647 21.294 209.467 21.366C209.287 21.444 209.095 21.483 208.891 21.483C208.693 21.483 208.507 21.444 208.333 21.366C208.159 21.294 208.006 21.192 207.874 21.06C207.748 20.934 207.646 20.784 207.568 20.61C207.49 20.442 207.451 20.262 207.451 20.07C207.451 19.872 207.49 19.686 207.568 19.512C207.646 19.344 207.748 19.194 207.874 19.062C208.006 18.936 208.159 18.834 208.333 18.756C208.507 18.684 208.693 18.648 208.891 18.648C209.095 18.648 209.287 18.684 209.467 18.756C209.647 18.834 209.803 18.936 209.935 19.062C210.073 19.194 210.181 19.344 210.259 19.512C210.337 19.686 210.376 19.872 210.376 20.07ZM219.299 11.322C220.091 11.322 220.661 11.133 221.009 10.755C221.357 10.377 221.531 9.849 221.531 9.171C221.531 8.871 221.486 8.598 221.396 8.352C221.306 8.106 221.168 7.896 220.982 7.722C220.802 7.542 220.571 7.404 220.289 7.308C220.013 7.212 219.683 7.164 219.299 7.164H217.715V11.322H219.299ZM219.299 4.887C220.223 4.887 221.015 4.998 221.675 5.22C222.341 5.436 222.887 5.736 223.313 6.12C223.745 6.504 224.063 6.957 224.267 7.479C224.471 8.001 224.573 8.565 224.573 9.171C224.573 9.825 224.468 10.425 224.258 10.971C224.048 11.517 223.727 11.985 223.295 12.375C222.863 12.765 222.314 13.071 221.648 13.293C220.988 13.509 220.205 13.617 219.299 13.617H217.715V18H214.673V4.887H219.299ZM235.056 15.66C235.638 15.66 236.157 15.564 236.613 15.372C237.069 15.174 237.453 14.895 237.765 14.535C238.083 14.169 238.326 13.725 238.494 13.203C238.662 12.681 238.746 12.093 238.746 11.439C238.746 10.791 238.662 10.206 238.494 9.684C238.326 9.162 238.083 8.721 237.765 8.361C237.453 7.995 237.069 7.716 236.613 7.524C236.157 7.326 235.638 7.227 235.056 7.227H233.022V10.593H235.218V12.249H233.022V15.66H235.056ZM235.056 4.887C236.076 4.887 237.003 5.052 237.837 5.382C238.677 5.712 239.394 6.168 239.988 6.75C240.582 7.332 241.041 8.025 241.365 8.829C241.695 9.627 241.86 10.497 241.86 11.439C241.86 12.387 241.695 13.263 241.365 14.067C241.041 14.865 240.582 15.558 239.988 16.146C239.394 16.728 238.677 17.184 237.837 17.514C237.003 17.838 236.076 18 235.056 18H229.962V12.249H228.468V10.593H229.962V4.887H235.056ZM250.132 12.987L248.917 9.396C248.827 9.168 248.731 8.901 248.629 8.595C248.527 8.283 248.425 7.947 248.323 7.587C248.233 7.953 248.137 8.292 248.035 8.604C247.933 8.916 247.837 9.186 247.747 9.414L246.541 12.987H250.132ZM254.965 18H252.607C252.343 18 252.13 17.94 251.968 17.82C251.806 17.694 251.683 17.535 251.599 17.343L250.825 15.057H245.839L245.065 17.343C244.999 17.511 244.879 17.664 244.705 17.802C244.537 17.934 244.327 18 244.075 18H241.699L246.775 4.887H249.889L254.965 18ZM245.569 2.277C245.359 2.541 245.113 2.691 244.831 2.727C244.549 2.763 244.252 2.628 243.94 2.322L241.609 0.278999H244.309C244.447 0.278999 244.564 0.290999 244.66 0.314999C244.762 0.338999 244.849 0.374999 244.921 0.422999C244.999 0.464999 245.068 0.521999 245.128 0.593999C245.188 0.659999 245.245 0.734999 245.299 0.819L245.947 1.827L245.569 2.277ZM251.833 4.041H249.817C249.709 4.041 249.577 4.023 249.421 3.987C249.265 3.945 249.103 3.825 248.935 3.627L248.485 2.925C248.455 2.883 248.425 2.844 248.395 2.808C248.371 2.772 248.347 2.733 248.323 2.691C248.299 2.733 248.272 2.772 248.242 2.808C248.218 2.844 248.191 2.883 248.161 2.925L247.711 3.627C247.543 3.825 247.381 3.945 247.225 3.987C247.069 4.023 246.937 4.041 246.829 4.041H244.903L247.099 1.539H249.637L251.833 4.041ZM261.137 15.597C261.545 15.597 261.908 15.531 262.226 15.399C262.55 15.261 262.823 15.066 263.045 14.814C263.267 14.562 263.435 14.256 263.549 13.896C263.669 13.53 263.729 13.116 263.729 12.654V4.887H266.771V12.654C266.771 13.458 266.639 14.196 266.375 14.868C266.117 15.54 265.745 16.119 265.259 16.605C264.773 17.091 264.182 17.469 263.486 17.739C262.79 18.009 262.007 18.144 261.137 18.144C260.261 18.144 259.475 18.009 258.779 17.739C258.083 17.469 257.492 17.091 257.006 16.605C256.52 16.119 256.148 15.54 255.89 14.868C255.632 14.196 255.503 13.458 255.503 12.654V4.887H258.545V12.645C258.545 13.107 258.602 13.521 258.716 13.887C258.836 14.247 259.007 14.556 259.229 14.814C259.451 15.066 259.721 15.261 260.039 15.399C260.363 15.531 260.729 15.597 261.137 15.597ZM282.192 7.299H278.502V18H275.46V7.299H271.77V4.887H282.192V7.299ZM298.758 3.546C298.794 3.672 298.824 3.831 298.848 4.023C298.872 4.209 298.884 4.401 298.884 4.599C298.884 5.067 298.806 5.511 298.65 5.931C298.5 6.351 298.26 6.72 297.93 7.038C297.606 7.356 297.189 7.611 296.679 7.803C296.169 7.995 295.557 8.094 294.843 8.1V12.654C294.843 13.458 294.711 14.196 294.447 14.868C294.189 15.54 293.817 16.119 293.331 16.605C292.845 17.091 292.254 17.469 291.558 17.739C290.862 18.009 290.079 18.144 289.209 18.144C288.333 18.144 287.547 18.009 286.851 17.739C286.155 17.469 285.564 17.091 285.078 16.605C284.592 16.119 284.22 15.54 283.962 14.868C283.704 14.196 283.575 13.458 283.575 12.654V4.887H286.617V12.645C286.617 13.107 286.674 13.521 286.788 13.887C286.908 14.247 287.079 14.556 287.301 14.814C287.523 15.066 287.793 15.261 288.111 15.399C288.435 15.531 288.801 15.597 289.209 15.597C289.617 15.597 289.98 15.531 290.298 15.399C290.622 15.261 290.895 15.066 291.117 14.814C291.339 14.562 291.507 14.256 291.621 13.896C291.741 13.53 291.801 13.116 291.801 12.654V4.887H294.843V6.75C295.323 6.738 295.671 6.648 295.887 6.48C296.103 6.306 296.211 6.105 296.211 5.877C296.211 5.775 296.193 5.682 296.157 5.598C296.121 5.514 296.082 5.424 296.04 5.328C295.998 5.232 295.959 5.13 295.923 5.022C295.887 4.908 295.869 4.773 295.869 4.617C295.869 4.257 295.983 3.99 296.211 3.816C296.445 3.636 296.814 3.546 297.318 3.546H298.758ZM314.715 4.887V18H313.131C312.897 18 312.699 17.964 312.537 17.892C312.381 17.814 312.225 17.682 312.069 17.496L305.886 9.675C305.91 9.909 305.925 10.137 305.931 10.359C305.943 10.575 305.949 10.779 305.949 10.971V18H303.267V4.887H304.869C305.001 4.887 305.112 4.893 305.202 4.905C305.292 4.917 305.373 4.941 305.445 4.977C305.517 5.007 305.586 5.052 305.652 5.112C305.718 5.172 305.793 5.253 305.877 5.355L312.114 13.23C312.084 12.978 312.063 12.735 312.051 12.501C312.039 12.261 312.033 12.036 312.033 11.826V4.887H314.715ZM332.28 3.546C332.316 3.672 332.346 3.831 332.37 4.023C332.394 4.209 332.406 4.401 332.406 4.599C332.406 5.067 332.328 5.511 332.172 5.931C332.022 6.351 331.782 6.72 331.452 7.038C331.128 7.356 330.711 7.611 330.201 7.803C329.691 7.995 329.079 8.094 328.365 8.1V12.654C328.365 13.458 328.233 14.196 327.969 14.868C327.711 15.54 327.339 16.119 326.853 16.605C326.367 17.091 325.776 17.469 325.08 17.739C324.384 18.009 323.601 18.144 322.731 18.144C321.855 18.144 321.069 18.009 320.373 17.739C319.677 17.469 319.086 17.091 318.6 16.605C318.114 16.119 317.742 15.54 317.484 14.868C317.226 14.196 317.097 13.458 317.097 12.654V4.887H320.139V12.645C320.139 13.107 320.196 13.521 320.31 13.887C320.43 14.247 320.601 14.556 320.823 14.814C321.045 15.066 321.315 15.261 321.633 15.399C321.957 15.531 322.323 15.597 322.731 15.597C323.139 15.597 323.502 15.531 323.82 15.399C324.144 15.261 324.417 15.066 324.639 14.814C324.861 14.562 325.029 14.256 325.143 13.896C325.263 13.53 325.323 13.116 325.323 12.654V4.887H328.365V6.75C328.845 6.738 329.193 6.648 329.409 6.48C329.625 6.306 329.733 6.105 329.733 5.877C329.733 5.775 329.715 5.682 329.679 5.598C329.643 5.514 329.604 5.424 329.562 5.328C329.52 5.232 329.481 5.13 329.445 5.022C329.409 4.908 329.391 4.773 329.391 4.617C329.391 4.257 329.505 3.99 329.733 3.816C329.967 3.636 330.336 3.546 330.84 3.546H332.28ZM339.075 15.624C339.657 15.624 340.176 15.531 340.632 15.345C341.088 15.153 341.472 14.877 341.784 14.517C342.102 14.157 342.345 13.719 342.513 13.203C342.681 12.681 342.765 12.093 342.765 11.439C342.765 10.791 342.681 10.209 342.513 9.693C342.345 9.171 342.102 8.73 341.784 8.37C341.472 8.01 341.088 7.734 340.632 7.542C340.176 7.35 339.657 7.254 339.075 7.254C338.487 7.254 337.962 7.35 337.5 7.542C337.044 7.734 336.657 8.01 336.339 8.37C336.027 8.73 335.787 9.171 335.619 9.693C335.451 10.209 335.367 10.791 335.367 11.439C335.367 12.093 335.451 12.681 335.619 13.203C335.787 13.719 336.027 14.157 336.339 14.517C336.657 14.877 337.044 15.153 337.5 15.345C337.962 15.531 338.487 15.624 339.075 15.624ZM347.13 3.546C347.166 3.672 347.196 3.831 347.22 4.023C347.244 4.209 347.256 4.401 347.256 4.599C347.256 4.959 347.211 5.307 347.121 5.643C347.031 5.973 346.89 6.282 346.698 6.57C346.506 6.852 346.263 7.104 345.969 7.326C345.675 7.542 345.324 7.716 344.916 7.848C345.228 8.364 345.465 8.925 345.627 9.531C345.795 10.131 345.879 10.767 345.879 11.439C345.879 12.387 345.714 13.269 345.384 14.085C345.06 14.901 344.601 15.612 344.007 16.218C343.413 16.818 342.696 17.289 341.856 17.631C341.022 17.973 340.095 18.144 339.075 18.144C338.055 18.144 337.125 17.973 336.285 17.631C335.445 17.289 334.725 16.818 334.125 16.218C333.531 15.612 333.069 14.901 332.739 14.085C332.415 13.269 332.253 12.387 332.253 11.439C332.253 10.491 332.415 9.609 332.739 8.793C333.069 7.977 333.531 7.269 334.125 6.669C334.725 6.069 335.445 5.598 336.285 5.256C337.125 4.914 338.055 4.743 339.075 4.743C340.089 4.743 341.007 4.911 341.829 5.247C342.651 5.577 343.362 6.036 343.962 6.624C344.172 6.546 344.328 6.441 344.43 6.309C344.532 6.177 344.583 6.033 344.583 5.877C344.583 5.775 344.565 5.682 344.529 5.598C344.493 5.514 344.454 5.424 344.412 5.328C344.37 5.232 344.331 5.13 344.295 5.022C344.259 4.908 344.241 4.773 344.241 4.617C344.241 4.257 344.355 3.99 344.583 3.816C344.817 3.636 345.186 3.546 345.69 3.546H347.13ZM343.206 1.197L340.299 3.762C340.227 3.828 340.158 3.879 340.092 3.915C340.026 3.951 339.957 3.978 339.885 3.996C339.813 4.014 339.735 4.026 339.651 4.032C339.573 4.038 339.483 4.041 339.381 4.041H337.347L339.048 1.611C339.12 1.515 339.189 1.44 339.255 1.386C339.327 1.326 339.402 1.284 339.48 1.26C339.564 1.23 339.657 1.212 339.759 1.206C339.867 1.2 339.99 1.197 340.128 1.197H343.206ZM357.421 14.607C357.493 14.607 357.565 14.622 357.637 14.652C357.709 14.676 357.778 14.721 357.844 14.787L359.05 16.056C358.522 16.746 357.859 17.268 357.061 17.622C356.269 17.97 355.33 18.144 354.244 18.144C353.248 18.144 352.354 17.976 351.562 17.64C350.776 17.298 350.107 16.83 349.555 16.236C349.009 15.636 348.589 14.928 348.295 14.112C348.001 13.29 347.854 12.399 347.854 11.439C347.854 10.461 348.013 9.564 348.331 8.748C348.649 7.926 349.096 7.218 349.672 6.624C350.248 6.03 350.938 5.568 351.742 5.238C352.546 4.908 353.431 4.743 354.397 4.743C354.889 4.743 355.351 4.788 355.783 4.878C356.221 4.962 356.629 5.082 357.007 5.238C357.385 5.388 357.733 5.571 358.051 5.787C358.369 6.003 358.651 6.237 358.897 6.489L357.871 7.866C357.805 7.95 357.727 8.028 357.637 8.1C357.547 8.166 357.421 8.199 357.259 8.199C357.151 8.199 357.049 8.175 356.953 8.127C356.857 8.079 356.755 8.022 356.647 7.956C356.539 7.884 356.419 7.809 356.287 7.731C356.161 7.647 356.008 7.572 355.828 7.506C355.654 7.434 355.447 7.374 355.207 7.326C354.973 7.278 354.697 7.254 354.379 7.254C353.875 7.254 353.413 7.347 352.993 7.533C352.579 7.719 352.219 7.992 351.913 8.352C351.613 8.706 351.379 9.144 351.211 9.666C351.049 10.182 350.968 10.773 350.968 11.439C350.968 12.111 351.058 12.708 351.238 13.23C351.424 13.752 351.673 14.193 351.985 14.553C352.303 14.907 352.672 15.177 353.092 15.363C353.512 15.549 353.962 15.642 354.442 15.642C354.718 15.642 354.97 15.63 355.198 15.606C355.426 15.576 355.639 15.531 355.837 15.471C356.035 15.405 356.221 15.321 356.395 15.219C356.569 15.111 356.746 14.976 356.926 14.814C356.998 14.754 357.076 14.706 357.16 14.67C357.244 14.628 357.331 14.607 357.421 14.607ZM375.992 4.887V18H374.408C374.174 18 373.976 17.964 373.814 17.892C373.658 17.814 373.502 17.682 373.346 17.496L367.163 9.675C367.187 9.909 367.202 10.137 367.208 10.359C367.22 10.575 367.226 10.779 367.226 10.971V18H364.544V4.887H366.146C366.278 4.887 366.389 4.893 366.479 4.905C366.569 4.917 366.65 4.941 366.722 4.977C366.794 5.007 366.863 5.052 366.929 5.112C366.995 5.172 367.07 5.253 367.154 5.355L373.391 13.23C373.361 12.978 373.34 12.735 373.328 12.501C373.316 12.261 373.31 12.036 373.31 11.826V4.887H375.992ZM384.836 11.205H389.498V16.74C388.826 17.232 388.109 17.589 387.347 17.811C386.591 18.033 385.799 18.144 384.971 18.144C383.891 18.144 382.907 17.976 382.019 17.64C381.137 17.298 380.381 16.83 379.751 16.236C379.121 15.636 378.635 14.928 378.293 14.112C377.951 13.29 377.78 12.399 377.78 11.439C377.78 10.461 377.942 9.564 378.266 8.748C378.59 7.926 379.052 7.218 379.652 6.624C380.258 6.03 380.987 5.568 381.839 5.238C382.697 4.908 383.654 4.743 384.71 4.743C385.256 4.743 385.769 4.788 386.249 4.878C386.729 4.968 387.17 5.091 387.572 5.247C387.98 5.403 388.352 5.589 388.688 5.805C389.024 6.021 389.324 6.255 389.588 6.507L388.706 7.848C388.568 8.058 388.388 8.187 388.166 8.235C387.95 8.283 387.716 8.229 387.464 8.073C387.224 7.929 386.996 7.806 386.78 7.704C386.57 7.596 386.354 7.509 386.132 7.443C385.91 7.377 385.676 7.329 385.43 7.299C385.184 7.269 384.908 7.254 384.602 7.254C384.032 7.254 383.519 7.356 383.063 7.56C382.607 7.758 382.217 8.04 381.893 8.406C381.575 8.772 381.329 9.213 381.155 9.729C380.981 10.239 380.894 10.809 380.894 11.439C380.894 12.135 380.99 12.753 381.182 13.293C381.374 13.833 381.644 14.289 381.992 14.661C382.346 15.033 382.766 15.318 383.252 15.516C383.744 15.708 384.287 15.804 384.881 15.804C385.247 15.804 385.577 15.768 385.871 15.696C386.171 15.624 386.462 15.528 386.744 15.408V13.419H385.448C385.256 13.419 385.106 13.368 384.998 13.266C384.89 13.164 384.836 13.035 384.836 12.879V11.205ZM404.414 11.439C404.414 12.387 404.249 13.269 403.919 14.085C403.595 14.901 403.136 15.612 402.542 16.218C401.948 16.818 401.231 17.289 400.391 17.631C399.557 17.973 398.63 18.144 397.61 18.144C396.59 18.144 395.66 17.973 394.82 17.631C393.98 17.289 393.26 16.818 392.66 16.218C392.066 15.612 391.604 14.901 391.274 14.085C390.95 13.269 390.788 12.387 390.788 11.439C390.788 10.491 390.95 9.609 391.274 8.793C391.604 7.977 392.066 7.269 392.66 6.669C393.26 6.069 393.98 5.598 394.82 5.256C395.66 4.914 396.59 4.743 397.61 4.743C398.63 4.743 399.557 4.917 400.391 5.265C401.231 5.607 401.948 6.078 402.542 6.678C403.136 7.278 403.595 7.986 403.919 8.802C404.249 9.618 404.414 10.497 404.414 11.439ZM401.3 11.439C401.3 10.791 401.216 10.209 401.048 9.693C400.88 9.171 400.637 8.73 400.319 8.37C400.007 8.01 399.623 7.734 399.167 7.542C398.711 7.35 398.192 7.254 397.61 7.254C397.022 7.254 396.497 7.35 396.035 7.542C395.579 7.734 395.192 8.01 394.874 8.37C394.562 8.73 394.322 9.171 394.154 9.693C393.986 10.209 393.902 10.791 393.902 11.439C393.902 12.093 393.986 12.681 394.154 13.203C394.322 13.719 394.562 14.157 394.874 14.517C395.192 14.877 395.579 15.153 396.035 15.345C396.497 15.531 397.022 15.624 397.61 15.624C398.192 15.624 398.711 15.531 399.167 15.345C399.623 15.153 400.007 14.877 400.319 14.517C400.637 14.157 400.88 13.719 401.048 13.203C401.216 12.681 401.3 12.093 401.3 11.439ZM412.695 12.987L411.48 9.396C411.39 9.168 411.294 8.901 411.192 8.595C411.09 8.283 410.988 7.947 410.886 7.587C410.796 7.953 410.7 8.292 410.598 8.604C410.496 8.916 410.4 9.186 410.31 9.414L409.104 12.987H412.695ZM417.528 18H415.17C414.906 18 414.693 17.94 414.531 17.82C414.369 17.694 414.246 17.535 414.162 17.343L413.388 15.057H408.402L407.628 17.343C407.562 17.511 407.442 17.664 407.268 17.802C407.1 17.934 406.89 18 406.638 18H404.262L409.338 4.887H412.452L417.528 18ZM409.527 1.197C409.665 1.197 409.785 1.203 409.887 1.215C409.989 1.221 410.079 1.239 410.157 1.269C410.241 1.293 410.316 1.332 410.382 1.386C410.454 1.44 410.529 1.515 410.607 1.611L412.488 4.041H410.454C410.346 4.041 410.253 4.041 410.175 4.041C410.097 4.035 410.022 4.023 409.95 4.005C409.884 3.987 409.818 3.963 409.752 3.933C409.692 3.897 409.626 3.846 409.554 3.78L406.629 1.197H409.527ZM421.622 18H418.562V4.887H421.622V18Z" fill="#00552B"/>
<path d="M13.266 27.887L8.01001 41H5.25601L8.78423e-06 27.887H2.44801C2.71201 27.887 2.92501 27.95 3.08701 28.076C3.24901 28.196 3.37201 28.352 3.45601 28.544L5.99401 35.564C6.11401 35.87 6.23101 36.206 6.34501 36.572C6.45901 36.932 6.56701 37.31 6.66901 37.706C6.75301 37.31 6.84601 36.932 6.94801 36.572C7.05601 36.206 7.17001 35.87 7.29001 35.564L9.81001 28.544C9.87601 28.376 9.99301 28.226 10.161 28.094C10.335 27.956 10.548 27.887 10.8 27.887H13.266ZM17.3599 41H14.2999V27.887H17.3599V41ZM22.9497 30.227V33.287H27.0717V35.537H22.9497V38.66H28.3317V41H19.8897V27.887H28.3317V30.227H22.9497ZM39.6311 30.299H35.9411V41H32.8991V30.299H29.2091V27.887H39.6311V30.299ZM52.6248 27.887V41H51.0408C50.8068 41 50.6088 40.964 50.4468 40.892C50.2908 40.814 50.1348 40.682 49.9788 40.496L43.7958 32.675C43.8198 32.909 43.8348 33.137 43.8408 33.359C43.8528 33.575 43.8588 33.779 43.8588 33.971V41H41.1768V27.887H42.7788C42.9108 27.887 43.0218 27.893 43.1118 27.905C43.2018 27.917 43.2828 27.941 43.3548 27.977C43.4268 28.007 43.4958 28.052 43.5618 28.112C43.6278 28.172 43.7028 28.253 43.7868 28.355L50.0238 36.23C49.9938 35.978 49.9728 35.735 49.9608 35.501C49.9488 35.261 49.9428 35.036 49.9428 34.826V27.887H52.6248ZM62.099 35.987L60.884 32.396C60.794 32.168 60.698 31.901 60.596 31.595C60.494 31.283 60.392 30.947 60.29 30.587C60.2 30.953 60.104 31.292 60.002 31.604C59.9 31.916 59.804 32.186 59.714 32.414L58.508 35.987H62.099ZM66.932 41H64.574C64.31 41 64.097 40.94 63.935 40.82C63.773 40.694 63.65 40.535 63.566 40.343L62.792 38.057H57.806L57.032 40.343C56.966 40.511 56.846 40.664 56.672 40.802C56.504 40.934 56.294 41 56.042 41H53.666L58.742 27.887H61.856L66.932 41ZM82.7079 27.887V41H80.0259V33.458C80.0259 33.284 80.0289 33.095 80.0349 32.891C80.0469 32.687 80.0649 32.48 80.0889 32.27L76.6059 39.011C76.4979 39.221 76.3509 39.38 76.1649 39.488C75.9849 39.596 75.7779 39.65 75.5439 39.65H75.1299C74.8959 39.65 74.6859 39.596 74.4999 39.488C74.3199 39.38 74.1759 39.221 74.0679 39.011L70.5849 32.252C70.6029 32.468 70.6179 32.681 70.6299 32.891C70.6419 33.095 70.6479 33.284 70.6479 33.458V41H67.9659V27.887H70.2879C70.4199 27.887 70.5339 27.89 70.6299 27.896C70.7319 27.902 70.8219 27.92 70.8999 27.95C70.9779 27.98 71.0469 28.028 71.1069 28.094C71.1729 28.154 71.2359 28.241 71.2959 28.355L74.6709 35.006C74.7909 35.234 74.9049 35.471 75.0129 35.717C75.1269 35.963 75.2349 36.215 75.3369 36.473C75.4389 36.209 75.5439 35.951 75.6519 35.699C75.7659 35.447 75.8859 35.207 76.0119 34.979L79.3779 28.355C79.4379 28.241 79.4979 28.154 79.5579 28.094C79.6239 28.028 79.6959 27.98 79.7739 27.95C79.8519 27.92 79.9389 27.902 80.0349 27.896C80.1369 27.89 80.2539 27.887 80.3859 27.887H82.7079ZM86.8022 27.023C87.1262 27.539 87.3452 28.07 87.4592 28.616C87.5732 29.162 87.5792 29.702 87.4772 30.236C87.3812 30.764 87.1802 31.271 86.8742 31.757C86.5682 32.243 86.1602 32.684 85.6502 33.08L84.7682 32.558C84.6902 32.516 84.6362 32.465 84.6062 32.405C84.5762 32.339 84.5612 32.276 84.5612 32.216C84.5672 32.15 84.5822 32.09 84.6062 32.036C84.6362 31.976 84.6722 31.925 84.7142 31.883C84.7802 31.811 84.8522 31.712 84.9302 31.586C85.0082 31.46 85.0802 31.313 85.1462 31.145C85.2122 30.977 85.2632 30.794 85.2992 30.596C85.3412 30.392 85.3562 30.179 85.3442 29.957C85.3322 29.729 85.2902 29.495 85.2182 29.255C85.1462 29.009 85.0292 28.76 84.8672 28.508C84.7352 28.298 84.6992 28.118 84.7592 27.968C84.8252 27.818 84.9482 27.71 85.1282 27.644L86.8022 27.023ZM96.5683 30.551C96.4783 30.695 96.3823 30.803 96.2803 30.875C96.1843 30.947 96.0583 30.983 95.9023 30.983C95.7643 30.983 95.6143 30.941 95.4523 30.857C95.2963 30.767 95.1163 30.668 94.9123 30.56C94.7143 30.452 94.4863 30.356 94.2283 30.272C93.9703 30.182 93.6763 30.137 93.3463 30.137C92.7763 30.137 92.3503 30.26 92.0683 30.506C91.7923 30.746 91.6543 31.073 91.6543 31.487C91.6543 31.751 91.7383 31.97 91.9063 32.144C92.0743 32.318 92.2933 32.468 92.5633 32.594C92.8393 32.72 93.1513 32.837 93.4993 32.945C93.8533 33.047 94.2133 33.164 94.5793 33.296C94.9453 33.422 95.3023 33.572 95.6503 33.746C96.0043 33.92 96.3163 34.142 96.5863 34.412C96.8623 34.682 97.0843 35.012 97.2523 35.402C97.4203 35.786 97.5043 36.251 97.5043 36.797C97.5043 37.403 97.3993 37.97 97.1893 38.498C96.9793 39.026 96.6733 39.488 96.2713 39.884C95.8753 40.274 95.3833 40.583 94.7953 40.811C94.2133 41.033 93.5503 41.144 92.8063 41.144C92.3983 41.144 91.9813 41.102 91.5553 41.018C91.1353 40.934 90.7273 40.817 90.3313 40.667C89.9353 40.511 89.5633 40.328 89.2153 40.118C88.8673 39.908 88.5643 39.674 88.3063 39.416L89.2063 37.994C89.2783 37.892 89.3713 37.808 89.4853 37.742C89.6053 37.67 89.7343 37.634 89.8723 37.634C90.0523 37.634 90.2323 37.691 90.4123 37.805C90.5983 37.919 90.8053 38.045 91.0333 38.183C91.2673 38.321 91.5343 38.447 91.8343 38.561C92.1343 38.675 92.4883 38.732 92.8963 38.732C93.4483 38.732 93.8773 38.612 94.1833 38.372C94.4893 38.126 94.6423 37.739 94.6423 37.211C94.6423 36.905 94.5583 36.656 94.3903 36.464C94.2223 36.272 94.0003 36.113 93.7243 35.987C93.4543 35.861 93.1453 35.75 92.7973 35.654C92.4493 35.558 92.0923 35.453 91.7263 35.339C91.3603 35.219 91.0033 35.075 90.6553 34.907C90.3073 34.733 89.9953 34.508 89.7193 34.232C89.4493 33.95 89.2303 33.602 89.0623 33.188C88.8943 32.768 88.8103 32.252 88.8103 31.64C88.8103 31.148 88.9093 30.668 89.1073 30.2C89.3053 29.732 89.5963 29.315 89.9803 28.949C90.3643 28.583 90.8353 28.292 91.3933 28.076C91.9513 27.854 92.5903 27.743 93.3103 27.743C93.7123 27.743 94.1023 27.776 94.4803 27.842C94.8643 27.902 95.2273 27.995 95.5693 28.121C95.9113 28.241 96.2293 28.388 96.5233 28.562C96.8233 28.73 97.0903 28.922 97.3243 29.138L96.5683 30.551ZM109.771 35.987L108.556 32.396C108.466 32.168 108.37 31.901 108.268 31.595C108.166 31.283 108.064 30.947 107.962 30.587C107.872 30.953 107.776 31.292 107.674 31.604C107.572 31.916 107.476 32.186 107.386 32.414L106.18 35.987H109.771ZM114.604 41H112.246C111.982 41 111.769 40.94 111.607 40.82C111.445 40.694 111.322 40.535 111.238 40.343L110.464 38.057H105.478L104.704 40.343C104.638 40.511 104.518 40.664 104.344 40.802C104.176 40.934 103.966 41 103.714 41H101.338L106.414 27.887H109.528L114.604 41ZM122.883 30.551C122.793 30.695 122.697 30.803 122.595 30.875C122.499 30.947 122.373 30.983 122.217 30.983C122.079 30.983 121.929 30.941 121.767 30.857C121.611 30.767 121.431 30.668 121.227 30.56C121.029 30.452 120.801 30.356 120.543 30.272C120.285 30.182 119.991 30.137 119.661 30.137C119.091 30.137 118.665 30.26 118.383 30.506C118.107 30.746 117.969 31.073 117.969 31.487C117.969 31.751 118.053 31.97 118.221 32.144C118.389 32.318 118.608 32.468 118.878 32.594C119.154 32.72 119.466 32.837 119.814 32.945C120.168 33.047 120.528 33.164 120.894 33.296C121.26 33.422 121.617 33.572 121.965 33.746C122.319 33.92 122.631 34.142 122.901 34.412C123.177 34.682 123.399 35.012 123.567 35.402C123.735 35.786 123.819 36.251 123.819 36.797C123.819 37.403 123.714 37.97 123.504 38.498C123.294 39.026 122.988 39.488 122.586 39.884C122.19 40.274 121.698 40.583 121.11 40.811C120.528 41.033 119.865 41.144 119.121 41.144C118.713 41.144 118.296 41.102 117.87 41.018C117.45 40.934 117.042 40.817 116.646 40.667C116.25 40.511 115.878 40.328 115.53 40.118C115.182 39.908 114.879 39.674 114.621 39.416L115.521 37.994C115.593 37.892 115.686 37.808 115.8 37.742C115.92 37.67 116.049 37.634 116.187 37.634C116.367 37.634 116.547 37.691 116.727 37.805C116.913 37.919 117.12 38.045 117.348 38.183C117.582 38.321 117.849 38.447 118.149 38.561C118.449 38.675 118.803 38.732 119.211 38.732C119.763 38.732 120.192 38.612 120.498 38.372C120.804 38.126 120.957 37.739 120.957 37.211C120.957 36.905 120.873 36.656 120.705 36.464C120.537 36.272 120.315 36.113 120.039 35.987C119.769 35.861 119.46 35.75 119.112 35.654C118.764 35.558 118.407 35.453 118.041 35.339C117.675 35.219 117.318 35.075 116.97 34.907C116.622 34.733 116.31 34.508 116.034 34.232C115.764 33.95 115.545 33.602 115.377 33.188C115.209 32.768 115.125 32.252 115.125 31.64C115.125 31.148 115.224 30.668 115.422 30.2C115.62 29.732 115.911 29.315 116.295 28.949C116.679 28.583 117.15 28.292 117.708 28.076C118.266 27.854 118.905 27.743 119.625 27.743C120.027 27.743 120.417 27.776 120.795 27.842C121.179 27.902 121.542 27.995 121.884 28.121C122.226 28.241 122.544 28.388 122.838 28.562C123.138 28.73 123.405 28.922 123.639 29.138L122.883 30.551ZM132.85 30.551C132.76 30.695 132.664 30.803 132.562 30.875C132.466 30.947 132.34 30.983 132.184 30.983C132.046 30.983 131.896 30.941 131.734 30.857C131.578 30.767 131.398 30.668 131.194 30.56C130.996 30.452 130.768 30.356 130.51 30.272C130.252 30.182 129.958 30.137 129.628 30.137C129.058 30.137 128.632 30.26 128.35 30.506C128.074 30.746 127.936 31.073 127.936 31.487C127.936 31.751 128.02 31.97 128.188 32.144C128.356 32.318 128.575 32.468 128.845 32.594C129.121 32.72 129.433 32.837 129.781 32.945C130.135 33.047 130.495 33.164 130.861 33.296C131.227 33.422 131.584 33.572 131.932 33.746C132.286 33.92 132.598 34.142 132.868 34.412C133.144 34.682 133.366 35.012 133.534 35.402C133.702 35.786 133.786 36.251 133.786 36.797C133.786 37.403 133.681 37.97 133.471 38.498C133.261 39.026 132.955 39.488 132.553 39.884C132.157 40.274 131.665 40.583 131.077 40.811C130.495 41.033 129.832 41.144 129.088 41.144C128.68 41.144 128.263 41.102 127.837 41.018C127.417 40.934 127.009 40.817 126.613 40.667C126.217 40.511 125.845 40.328 125.497 40.118C125.149 39.908 124.846 39.674 124.588 39.416L125.488 37.994C125.56 37.892 125.653 37.808 125.767 37.742C125.887 37.67 126.016 37.634 126.154 37.634C126.334 37.634 126.514 37.691 126.694 37.805C126.88 37.919 127.087 38.045 127.315 38.183C127.549 38.321 127.816 38.447 128.116 38.561C128.416 38.675 128.77 38.732 129.178 38.732C129.73 38.732 130.159 38.612 130.465 38.372C130.771 38.126 130.924 37.739 130.924 37.211C130.924 36.905 130.84 36.656 130.672 36.464C130.504 36.272 130.282 36.113 130.006 35.987C129.736 35.861 129.427 35.75 129.079 35.654C128.731 35.558 128.374 35.453 128.008 35.339C127.642 35.219 127.285 35.075 126.937 34.907C126.589 34.733 126.277 34.508 126.001 34.232C125.731 33.95 125.512 33.602 125.344 33.188C125.176 32.768 125.092 32.252 125.092 31.64C125.092 31.148 125.191 30.668 125.389 30.2C125.587 29.732 125.878 29.315 126.262 28.949C126.646 28.583 127.117 28.292 127.675 28.076C128.233 27.854 128.872 27.743 129.592 27.743C129.994 27.743 130.384 27.776 130.762 27.842C131.146 27.902 131.509 27.995 131.851 28.121C132.193 28.241 132.511 28.388 132.805 28.562C133.105 28.73 133.372 28.922 133.606 29.138L132.85 30.551ZM148.441 34.439C148.441 35.387 148.276 36.269 147.946 37.085C147.622 37.901 147.163 38.612 146.569 39.218C145.975 39.818 145.258 40.289 144.418 40.631C143.584 40.973 142.657 41.144 141.637 41.144C140.617 41.144 139.687 40.973 138.847 40.631C138.007 40.289 137.287 39.818 136.687 39.218C136.093 38.612 135.631 37.901 135.301 37.085C134.977 36.269 134.815 35.387 134.815 34.439C134.815 33.491 134.977 32.609 135.301 31.793C135.631 30.977 136.093 30.269 136.687 29.669C137.287 29.069 138.007 28.598 138.847 28.256C139.687 27.914 140.617 27.743 141.637 27.743C142.657 27.743 143.584 27.917 144.418 28.265C145.258 28.607 145.975 29.078 146.569 29.678C147.163 30.278 147.622 30.986 147.946 31.802C148.276 32.618 148.441 33.497 148.441 34.439ZM145.327 34.439C145.327 33.791 145.243 33.209 145.075 32.693C144.907 32.171 144.664 31.73 144.346 31.37C144.034 31.01 143.65 30.734 143.194 30.542C142.738 30.35 142.219 30.254 141.637 30.254C141.049 30.254 140.524 30.35 140.062 30.542C139.606 30.734 139.219 31.01 138.901 31.37C138.589 31.73 138.349 32.171 138.181 32.693C138.013 33.209 137.929 33.791 137.929 34.439C137.929 35.093 138.013 35.681 138.181 36.203C138.349 36.719 138.589 37.157 138.901 37.517C139.219 37.877 139.606 38.153 140.062 38.345C140.524 38.531 141.049 38.624 141.637 38.624C142.219 38.624 142.738 38.531 143.194 38.345C143.65 38.153 144.034 37.877 144.346 37.517C144.664 37.157 144.907 36.719 145.075 36.203C145.243 35.681 145.327 35.093 145.327 34.439ZM159.07 37.607C159.142 37.607 159.214 37.622 159.286 37.652C159.358 37.676 159.427 37.721 159.493 37.787L160.699 39.056C160.171 39.746 159.508 40.268 158.71 40.622C157.918 40.97 156.979 41.144 155.893 41.144C154.897 41.144 154.003 40.976 153.211 40.64C152.425 40.298 151.756 39.83 151.204 39.236C150.658 38.636 150.238 37.928 149.944 37.112C149.65 36.29 149.503 35.399 149.503 34.439C149.503 33.461 149.662 32.564 149.98 31.748C150.298 30.926 150.745 30.218 151.321 29.624C151.897 29.03 152.587 28.568 153.391 28.238C154.195 27.908 155.08 27.743 156.046 27.743C156.538 27.743 157 27.788 157.432 27.878C157.87 27.962 158.278 28.082 158.656 28.238C159.034 28.388 159.382 28.571 159.7 28.787C160.018 29.003 160.3 29.237 160.546 29.489L159.52 30.866C159.454 30.95 159.376 31.028 159.286 31.1C159.196 31.166 159.07 31.199 158.908 31.199C158.8 31.199 158.698 31.175 158.602 31.127C158.506 31.079 158.404 31.022 158.296 30.956C158.188 30.884 158.068 30.809 157.936 30.731C157.81 30.647 157.657 30.572 157.477 30.506C157.303 30.434 157.096 30.374 156.856 30.326C156.622 30.278 156.346 30.254 156.028 30.254C155.524 30.254 155.062 30.347 154.642 30.533C154.228 30.719 153.868 30.992 153.562 31.352C153.262 31.706 153.028 32.144 152.86 32.666C152.698 33.182 152.617 33.773 152.617 34.439C152.617 35.111 152.707 35.708 152.887 36.23C153.073 36.752 153.322 37.193 153.634 37.553C153.952 37.907 154.321 38.177 154.741 38.363C155.161 38.549 155.611 38.642 156.091 38.642C156.367 38.642 156.619 38.63 156.847 38.606C157.075 38.576 157.288 38.531 157.486 38.471C157.684 38.405 157.87 38.321 158.044 38.219C158.218 38.111 158.395 37.976 158.575 37.814C158.647 37.754 158.725 37.706 158.809 37.67C158.893 37.628 158.98 37.607 159.07 37.607ZM165.086 41H162.026V27.887H165.086V41ZM174.546 35.987L173.331 32.396C173.241 32.168 173.145 31.901 173.043 31.595C172.941 31.283 172.839 30.947 172.737 30.587C172.647 30.953 172.551 31.292 172.449 31.604C172.347 31.916 172.251 32.186 172.161 32.414L170.955 35.987H174.546ZM179.379 41H177.021C176.757 41 176.544 40.94 176.382 40.82C176.22 40.694 176.097 40.535 176.013 40.343L175.239 38.057H170.253L169.479 40.343C169.413 40.511 169.293 40.664 169.119 40.802C168.951 40.934 168.741 41 168.489 41H166.113L171.189 27.887H174.303L179.379 41ZM188.553 30.299H184.863V41H181.821V30.299H178.131V27.887H188.553V30.299ZM193.159 41H190.099V27.887H193.159V41ZM208.559 34.439C208.559 35.387 208.394 36.269 208.064 37.085C207.74 37.901 207.281 38.612 206.687 39.218C206.093 39.818 205.376 40.289 204.536 40.631C203.702 40.973 202.775 41.144 201.755 41.144C200.735 41.144 199.805 40.973 198.965 40.631C198.125 40.289 197.405 39.818 196.805 39.218C196.211 38.612 195.749 37.901 195.419 37.085C195.095 36.269 194.933 35.387 194.933 34.439C194.933 33.491 195.095 32.609 195.419 31.793C195.749 30.977 196.211 30.269 196.805 29.669C197.405 29.069 198.125 28.598 198.965 28.256C199.805 27.914 200.735 27.743 201.755 27.743C202.775 27.743 203.702 27.917 204.536 28.265C205.376 28.607 206.093 29.078 206.687 29.678C207.281 30.278 207.74 30.986 208.064 31.802C208.394 32.618 208.559 33.497 208.559 34.439ZM205.445 34.439C205.445 33.791 205.361 33.209 205.193 32.693C205.025 32.171 204.782 31.73 204.464 31.37C204.152 31.01 203.768 30.734 203.312 30.542C202.856 30.35 202.337 30.254 201.755 30.254C201.167 30.254 200.642 30.35 200.18 30.542C199.724 30.734 199.337 31.01 199.019 31.37C198.707 31.73 198.467 32.171 198.299 32.693C198.131 33.209 198.047 33.791 198.047 34.439C198.047 35.093 198.131 35.681 198.299 36.203C198.467 36.719 198.707 37.157 199.019 37.517C199.337 37.877 199.724 38.153 200.18 38.345C200.642 38.531 201.167 38.624 201.755 38.624C202.337 38.624 202.856 38.531 203.312 38.345C203.768 38.153 204.152 37.877 204.464 37.517C204.782 37.157 205.025 36.719 205.193 36.203C205.361 35.681 205.445 35.093 205.445 34.439ZM221.797 27.887V41H220.213C219.979 41 219.781 40.964 219.619 40.892C219.463 40.814 219.307 40.682 219.151 40.496L212.968 32.675C212.992 32.909 213.007 33.137 213.013 33.359C213.025 33.575 213.031 33.779 213.031 33.971V41H210.349V27.887H211.951C212.083 27.887 212.194 27.893 212.284 27.905C212.374 27.917 212.455 27.941 212.527 27.977C212.599 28.007 212.668 28.052 212.734 28.112C212.8 28.172 212.875 28.253 212.959 28.355L219.196 36.23C219.166 35.978 219.145 35.735 219.133 35.501C219.121 35.261 219.115 35.036 219.115 34.826V27.887H221.797ZM241.377 34.439C241.377 35.387 241.212 36.269 240.882 37.085C240.558 37.901 240.099 38.612 239.505 39.218C238.911 39.818 238.194 40.289 237.354 40.631C236.52 40.973 235.593 41.144 234.573 41.144C233.553 41.144 232.623 40.973 231.783 40.631C230.943 40.289 230.223 39.818 229.623 39.218C229.029 38.612 228.567 37.901 228.237 37.085C227.913 36.269 227.751 35.387 227.751 34.439C227.751 33.491 227.913 32.609 228.237 31.793C228.567 30.977 229.029 30.269 229.623 29.669C230.223 29.069 230.943 28.598 231.783 28.256C232.623 27.914 233.553 27.743 234.573 27.743C235.593 27.743 236.52 27.917 237.354 28.265C238.194 28.607 238.911 29.078 239.505 29.678C240.099 30.278 240.558 30.986 240.882 31.802C241.212 32.618 241.377 33.497 241.377 34.439ZM238.263 34.439C238.263 33.791 238.179 33.209 238.011 32.693C237.843 32.171 237.6 31.73 237.282 31.37C236.97 31.01 236.586 30.734 236.13 30.542C235.674 30.35 235.155 30.254 234.573 30.254C233.985 30.254 233.46 30.35 232.998 30.542C232.542 30.734 232.155 31.01 231.837 31.37C231.525 31.73 231.285 32.171 231.117 32.693C230.949 33.209 230.865 33.791 230.865 34.439C230.865 35.093 230.949 35.681 231.117 36.203C231.285 36.719 231.525 37.157 231.837 37.517C232.155 37.877 232.542 38.153 232.998 38.345C233.46 38.531 233.985 38.624 234.573 38.624C235.155 38.624 235.674 38.531 236.13 38.345C236.586 38.153 236.97 37.877 237.282 37.517C237.6 37.157 237.843 36.719 238.011 36.203C238.179 35.681 238.263 35.093 238.263 34.439ZM246.227 30.227V33.548H250.709V35.897H246.227V41H243.167V27.887H251.609V30.227H246.227ZM260.131 30.227V33.548H264.613V35.897H260.131V41H257.071V27.887H265.513V30.227H260.131ZM280.014 34.439C280.014 35.387 279.849 36.269 279.519 37.085C279.195 37.901 278.736 38.612 278.142 39.218C277.548 39.818 276.831 40.289 275.991 40.631C275.157 40.973 274.23 41.144 273.21 41.144C272.19 41.144 271.26 40.973 270.42 40.631C269.58 40.289 268.86 39.818 268.26 39.218C267.666 38.612 267.204 37.901 266.874 37.085C266.55 36.269 266.388 35.387 266.388 34.439C266.388 33.491 266.55 32.609 266.874 31.793C267.204 30.977 267.666 30.269 268.26 29.669C268.86 29.069 269.58 28.598 270.42 28.256C271.26 27.914 272.19 27.743 273.21 27.743C274.23 27.743 275.157 27.917 275.991 28.265C276.831 28.607 277.548 29.078 278.142 29.678C278.736 30.278 279.195 30.986 279.519 31.802C279.849 32.618 280.014 33.497 280.014 34.439ZM276.9 34.439C276.9 33.791 276.816 33.209 276.648 32.693C276.48 32.171 276.237 31.73 275.919 31.37C275.607 31.01 275.223 30.734 274.767 30.542C274.311 30.35 273.792 30.254 273.21 30.254C272.622 30.254 272.097 30.35 271.635 30.542C271.179 30.734 270.792 31.01 270.474 31.37C270.162 31.73 269.922 32.171 269.754 32.693C269.586 33.209 269.502 33.791 269.502 34.439C269.502 35.093 269.586 35.681 269.754 36.203C269.922 36.719 270.162 37.157 270.474 37.517C270.792 37.877 271.179 38.153 271.635 38.345C272.097 38.531 272.622 38.624 273.21 38.624C273.792 38.624 274.311 38.531 274.767 38.345C275.223 38.153 275.607 37.877 275.919 37.517C276.237 37.157 276.48 36.719 276.648 36.203C276.816 35.681 276.9 35.093 276.9 34.439ZM286.07 34.052C286.484 34.052 286.835 34.001 287.123 33.899C287.417 33.791 287.657 33.644 287.843 33.458C288.029 33.272 288.164 33.056 288.248 32.81C288.332 32.558 288.374 32.288 288.374 32C288.374 31.424 288.185 30.974 287.807 30.65C287.435 30.326 286.856 30.164 286.07 30.164H284.846V34.052H286.07ZM292.532 41H289.778C289.268 41 288.902 40.808 288.68 40.424L286.502 36.617C286.4 36.455 286.286 36.338 286.16 36.266C286.034 36.188 285.854 36.149 285.62 36.149H284.846V41H281.804V27.887H286.07C287.018 27.887 287.825 27.986 288.491 28.184C289.163 28.376 289.709 28.646 290.129 28.994C290.555 29.342 290.864 29.753 291.056 30.227C291.248 30.701 291.344 31.217 291.344 31.775C291.344 32.201 291.287 32.603 291.173 32.981C291.059 33.359 290.891 33.71 290.669 34.034C290.447 34.352 290.171 34.637 289.841 34.889C289.517 35.141 289.142 35.348 288.716 35.51C288.914 35.612 289.1 35.741 289.274 35.897C289.448 36.047 289.604 36.227 289.742 36.437L292.532 41ZM296.694 30.227V33.287H300.816V35.537H296.694V38.66H302.076V41H293.634V27.887H302.076V30.227H296.694ZM307.012 41H303.952V27.887H307.012V41ZM315.842 34.205H320.504V39.74C319.832 40.232 319.115 40.589 318.353 40.811C317.597 41.033 316.805 41.144 315.977 41.144C314.897 41.144 313.913 40.976 313.025 40.64C312.143 40.298 311.387 39.83 310.757 39.236C310.127 38.636 309.641 37.928 309.299 37.112C308.957 36.29 308.786 35.399 308.786 34.439C308.786 33.461 308.948 32.564 309.272 31.748C309.596 30.926 310.058 30.218 310.658 29.624C311.264 29.03 311.993 28.568 312.845 28.238C313.703 27.908 314.66 27.743 315.716 27.743C316.262 27.743 316.775 27.788 317.255 27.878C317.735 27.968 318.176 28.091 318.578 28.247C318.986 28.403 319.358 28.589 319.694 28.805C320.03 29.021 320.33 29.255 320.594 29.507L319.712 30.848C319.574 31.058 319.394 31.187 319.172 31.235C318.956 31.283 318.722 31.229 318.47 31.073C318.23 30.929 318.002 30.806 317.786 30.704C317.576 30.596 317.36 30.509 317.138 30.443C316.916 30.377 316.682 30.329 316.436 30.299C316.19 30.269 315.914 30.254 315.608 30.254C315.038 30.254 314.525 30.356 314.069 30.56C313.613 30.758 313.223 31.04 312.899 31.406C312.581 31.772 312.335 32.213 312.161 32.729C311.987 33.239 311.9 33.809 311.9 34.439C311.9 35.135 311.996 35.753 312.188 36.293C312.38 36.833 312.65 37.289 312.998 37.661C313.352 38.033 313.772 38.318 314.258 38.516C314.75 38.708 315.293 38.804 315.887 38.804C316.253 38.804 316.583 38.768 316.877 38.696C317.177 38.624 317.468 38.528 317.75 38.408V36.419H316.454C316.262 36.419 316.112 36.368 316.004 36.266C315.896 36.164 315.842 36.035 315.842 35.879V34.205ZM333.998 27.887V41H332.414C332.18 41 331.982 40.964 331.82 40.892C331.664 40.814 331.508 40.682 331.352 40.496L325.169 32.675C325.193 32.909 325.208 33.137 325.214 33.359C325.226 33.575 325.232 33.779 325.232 33.971V41H322.55V27.887H324.152C324.284 27.887 324.395 27.893 324.485 27.905C324.575 27.917 324.656 27.941 324.728 27.977C324.8 28.007 324.869 28.052 324.935 28.112C325.001 28.172 325.076 28.253 325.16 28.355L331.397 36.23C331.367 35.978 331.346 35.735 331.334 35.501C331.322 35.261 331.316 35.036 331.316 34.826V27.887H333.998ZM343.768 41H340.708V27.887H343.768V41ZM357.746 27.887V41H356.162C355.928 41 355.73 40.964 355.568 40.892C355.412 40.814 355.256 40.682 355.1 40.496L348.917 32.675C348.941 32.909 348.956 33.137 348.962 33.359C348.974 33.575 348.98 33.779 348.98 33.971V41H346.298V27.887H347.9C348.032 27.887 348.143 27.893 348.233 27.905C348.323 27.917 348.404 27.941 348.476 27.977C348.548 28.007 348.617 28.052 348.683 28.112C348.749 28.172 348.824 28.253 348.908 28.355L355.145 36.23C355.115 35.978 355.094 35.735 355.082 35.501C355.07 35.261 355.064 35.036 355.064 34.826V27.887H357.746ZM372.053 27.887L366.797 41H364.043L358.787 27.887H361.235C361.499 27.887 361.712 27.95 361.874 28.076C362.036 28.196 362.159 28.352 362.243 28.544L364.781 35.564C364.901 35.87 365.018 36.206 365.132 36.572C365.246 36.932 365.354 37.31 365.456 37.706C365.54 37.31 365.633 36.932 365.735 36.572C365.843 36.206 365.957 35.87 366.077 35.564L368.597 28.544C368.663 28.376 368.78 28.226 368.948 28.094C369.122 27.956 369.335 27.887 369.587 27.887H372.053ZM376.147 30.227V33.287H380.269V35.537H376.147V38.66H381.529V41H373.087V27.887H381.529V30.227H376.147ZM390.65 30.551C390.56 30.695 390.464 30.803 390.362 30.875C390.266 30.947 390.14 30.983 389.984 30.983C389.846 30.983 389.696 30.941 389.534 30.857C389.378 30.767 389.198 30.668 388.994 30.56C388.796 30.452 388.568 30.356 388.31 30.272C388.052 30.182 387.758 30.137 387.428 30.137C386.858 30.137 386.432 30.26 386.15 30.506C385.874 30.746 385.736 31.073 385.736 31.487C385.736 31.751 385.82 31.97 385.988 32.144C386.156 32.318 386.375 32.468 386.645 32.594C386.921 32.72 387.233 32.837 387.581 32.945C387.935 33.047 388.295 33.164 388.661 33.296C389.027 33.422 389.384 33.572 389.732 33.746C390.086 33.92 390.398 34.142 390.668 34.412C390.944 34.682 391.166 35.012 391.334 35.402C391.502 35.786 391.586 36.251 391.586 36.797C391.586 37.403 391.481 37.97 391.271 38.498C391.061 39.026 390.755 39.488 390.353 39.884C389.957 40.274 389.465 40.583 388.877 40.811C388.295 41.033 387.632 41.144 386.888 41.144C386.48 41.144 386.063 41.102 385.637 41.018C385.217 40.934 384.809 40.817 384.413 40.667C384.017 40.511 383.645 40.328 383.297 40.118C382.949 39.908 382.646 39.674 382.388 39.416L383.288 37.994C383.36 37.892 383.453 37.808 383.567 37.742C383.687 37.67 383.816 37.634 383.954 37.634C384.134 37.634 384.314 37.691 384.494 37.805C384.68 37.919 384.887 38.045 385.115 38.183C385.349 38.321 385.616 38.447 385.916 38.561C386.216 38.675 386.57 38.732 386.978 38.732C387.53 38.732 387.959 38.612 388.265 38.372C388.571 38.126 388.724 37.739 388.724 37.211C388.724 36.905 388.64 36.656 388.472 36.464C388.304 36.272 388.082 36.113 387.806 35.987C387.536 35.861 387.227 35.75 386.879 35.654C386.531 35.558 386.174 35.453 385.808 35.339C385.442 35.219 385.085 35.075 384.737 34.907C384.389 34.733 384.077 34.508 383.801 34.232C383.531 33.95 383.312 33.602 383.144 33.188C382.976 32.768 382.892 32.252 382.892 31.64C382.892 31.148 382.991 30.668 383.189 30.2C383.387 29.732 383.678 29.315 384.062 28.949C384.446 28.583 384.917 28.292 385.475 28.076C386.033 27.854 386.672 27.743 387.392 27.743C387.794 27.743 388.184 27.776 388.562 27.842C388.946 27.902 389.309 27.995 389.651 28.121C389.993 28.241 390.311 28.388 390.605 28.562C390.905 28.73 391.172 28.922 391.406 29.138L390.65 30.551ZM402.795 30.299H399.105V41H396.063V30.299H392.373V27.887H402.795V30.299ZM407.401 30.227V33.287H411.523V35.537H407.401V38.66H412.783V41H404.341V27.887H412.783V30.227H407.401ZM426.557 34.439C426.557 35.387 426.392 36.263 426.062 37.067C425.738 37.865 425.279 38.558 424.685 39.146C424.091 39.728 423.374 40.184 422.534 40.514C421.7 40.838 420.773 41 419.753 41H414.659V27.887H419.753C420.773 27.887 421.7 28.052 422.534 28.382C423.374 28.712 424.091 29.168 424.685 29.75C425.279 30.332 425.738 31.025 426.062 31.829C426.392 32.627 426.557 33.497 426.557 34.439ZM423.443 34.439C423.443 33.791 423.359 33.206 423.191 32.684C423.023 32.162 422.78 31.721 422.462 31.361C422.15 30.995 421.766 30.716 421.31 30.524C420.854 30.326 420.335 30.227 419.753 30.227H417.719V38.66H419.753C420.335 38.66 420.854 38.564 421.31 38.372C421.766 38.174 422.15 37.895 422.462 37.535C422.78 37.169 423.023 36.725 423.191 36.203C423.359 35.681 423.443 35.093 423.443 34.439ZM435.579 30.227V33.287H439.701V35.537H435.579V38.66H440.961V41H432.519V27.887H440.961V30.227H435.579ZM454.285 27.887V41H452.701C452.467 41 452.269 40.964 452.107 40.892C451.951 40.814 451.795 40.682 451.639 40.496L445.456 32.675C445.48 32.909 445.495 33.137 445.501 33.359C445.513 33.575 445.519 33.779 445.519 33.971V41H442.837V27.887H444.439C444.571 27.887 444.682 27.893 444.772 27.905C444.862 27.917 444.943 27.941 445.015 27.977C445.087 28.007 445.156 28.052 445.222 28.112C445.288 28.172 445.363 28.253 445.447 28.355L451.684 36.23C451.654 35.978 451.633 35.735 451.621 35.501C451.609 35.261 451.603 35.036 451.603 34.826V27.887H454.285ZM466.252 30.299H462.562V41H459.52V30.299H455.83V27.887H466.252V30.299ZM470.858 30.227V33.287H474.98V35.537H470.858V38.66H476.24V41H467.798V27.887H476.24V30.227H470.858ZM482.382 34.052C482.796 34.052 483.147 34.001 483.435 33.899C483.729 33.791 483.969 33.644 484.155 33.458C484.341 33.272 484.476 33.056 484.56 32.81C484.644 32.558 484.686 32.288 484.686 32C484.686 31.424 484.497 30.974 484.119 30.65C483.747 30.326 483.168 30.164 482.382 30.164H481.158V34.052H482.382ZM488.844 41H486.09C485.58 41 485.214 40.808 484.992 40.424L482.814 36.617C482.712 36.455 482.598 36.338 482.472 36.266C482.346 36.188 482.166 36.149 481.932 36.149H481.158V41H478.116V27.887H482.382C483.33 27.887 484.137 27.986 484.803 28.184C485.475 28.376 486.021 28.646 486.441 28.994C486.867 29.342 487.176 29.753 487.368 30.227C487.56 30.701 487.656 31.217 487.656 31.775C487.656 32.201 487.599 32.603 487.485 32.981C487.371 33.359 487.203 33.71 486.981 34.034C486.759 34.352 486.483 34.637 486.153 34.889C485.829 35.141 485.454 35.348 485.028 35.51C485.226 35.612 485.412 35.741 485.586 35.897C485.76 36.047 485.916 36.227 486.054 36.437L488.844 41ZM494.572 34.322C495.364 34.322 495.934 34.133 496.282 33.755C496.63 33.377 496.804 32.849 496.804 32.171C496.804 31.871 496.759 31.598 496.669 31.352C496.579 31.106 496.441 30.896 496.255 30.722C496.075 30.542 495.844 30.404 495.562 30.308C495.286 30.212 494.956 30.164 494.572 30.164H492.988V34.322H494.572ZM494.572 27.887C495.496 27.887 496.288 27.998 496.948 28.22C497.614 28.436 498.16 28.736 498.586 29.12C499.018 29.504 499.336 29.957 499.54 30.479C499.744 31.001 499.846 31.565 499.846 32.171C499.846 32.825 499.741 33.425 499.531 33.971C499.321 34.517 499 34.985 498.568 35.375C498.136 35.765 497.587 36.071 496.921 36.293C496.261 36.509 495.478 36.617 494.572 36.617H492.988V41H489.946V27.887H494.572ZM505.656 34.052C506.07 34.052 506.421 34.001 506.709 33.899C507.003 33.791 507.243 33.644 507.429 33.458C507.615 33.272 507.75 33.056 507.834 32.81C507.918 32.558 507.96 32.288 507.96 32C507.96 31.424 507.771 30.974 507.393 30.65C507.021 30.326 506.442 30.164 505.656 30.164H504.432V34.052H505.656ZM512.118 41H509.364C508.854 41 508.488 40.808 508.266 40.424L506.088 36.617C505.986 36.455 505.872 36.338 505.746 36.266C505.62 36.188 505.44 36.149 505.206 36.149H504.432V41H501.39V27.887H505.656C506.604 27.887 507.411 27.986 508.077 28.184C508.749 28.376 509.295 28.646 509.715 28.994C510.141 29.342 510.45 29.753 510.642 30.227C510.834 30.701 510.93 31.217 510.93 31.775C510.93 32.201 510.873 32.603 510.759 32.981C510.645 33.359 510.477 33.71 510.255 34.034C510.033 34.352 509.757 34.637 509.427 34.889C509.103 35.141 508.728 35.348 508.302 35.51C508.5 35.612 508.686 35.741 508.86 35.897C509.034 36.047 509.19 36.227 509.328 36.437L512.118 41ZM516.28 41H513.22V27.887H516.28V41ZM526.055 30.551C525.965 30.695 525.869 30.803 525.767 30.875C525.671 30.947 525.545 30.983 525.389 30.983C525.251 30.983 525.101 30.941 524.939 30.857C524.783 30.767 524.603 30.668 524.399 30.56C524.201 30.452 523.973 30.356 523.715 30.272C523.457 30.182 523.163 30.137 522.833 30.137C522.263 30.137 521.837 30.26 521.555 30.506C521.279 30.746 521.141 31.073 521.141 31.487C521.141 31.751 521.225 31.97 521.393 32.144C521.561 32.318 521.78 32.468 522.05 32.594C522.326 32.72 522.638 32.837 522.986 32.945C523.34 33.047 523.7 33.164 524.066 33.296C524.432 33.422 524.789 33.572 525.137 33.746C525.491 33.92 525.803 34.142 526.073 34.412C526.349 34.682 526.571 35.012 526.739 35.402C526.907 35.786 526.991 36.251 526.991 36.797C526.991 37.403 526.886 37.97 526.676 38.498C526.466 39.026 526.16 39.488 525.758 39.884C525.362 40.274 524.87 40.583 524.282 40.811C523.7 41.033 523.037 41.144 522.293 41.144C521.885 41.144 521.468 41.102 521.042 41.018C520.622 40.934 520.214 40.817 519.818 40.667C519.422 40.511 519.05 40.328 518.702 40.118C518.354 39.908 518.051 39.674 517.793 39.416L518.693 37.994C518.765 37.892 518.858 37.808 518.972 37.742C519.092 37.67 519.221 37.634 519.359 37.634C519.539 37.634 519.719 37.691 519.899 37.805C520.085 37.919 520.292 38.045 520.52 38.183C520.754 38.321 521.021 38.447 521.321 38.561C521.621 38.675 521.975 38.732 522.383 38.732C522.935 38.732 523.364 38.612 523.67 38.372C523.976 38.126 524.129 37.739 524.129 37.211C524.129 36.905 524.045 36.656 523.877 36.464C523.709 36.272 523.487 36.113 523.211 35.987C522.941 35.861 522.632 35.75 522.284 35.654C521.936 35.558 521.579 35.453 521.213 35.339C520.847 35.219 520.49 35.075 520.142 34.907C519.794 34.733 519.482 34.508 519.206 34.232C518.936 33.95 518.717 33.602 518.549 33.188C518.381 32.768 518.297 32.252 518.297 31.64C518.297 31.148 518.396 30.668 518.594 30.2C518.792 29.732 519.083 29.315 519.467 28.949C519.851 28.583 520.322 28.292 520.88 28.076C521.438 27.854 522.077 27.743 522.797 27.743C523.199 27.743 523.589 27.776 523.967 27.842C524.351 27.902 524.714 27.995 525.056 28.121C525.398 28.241 525.716 28.388 526.01 28.562C526.31 28.73 526.577 28.922 526.811 29.138L526.055 30.551ZM531.836 30.227V33.287H535.958V35.537H531.836V38.66H537.218V41H528.776V27.887H537.218V30.227H531.836ZM546.34 30.551C546.25 30.695 546.154 30.803 546.052 30.875C545.956 30.947 545.83 30.983 545.674 30.983C545.536 30.983 545.386 30.941 545.224 30.857C545.068 30.767 544.888 30.668 544.684 30.56C544.486 30.452 544.258 30.356 544 30.272C543.742 30.182 543.448 30.137 543.118 30.137C542.548 30.137 542.122 30.26 541.84 30.506C541.564 30.746 541.426 31.073 541.426 31.487C541.426 31.751 541.51 31.97 541.678 32.144C541.846 32.318 542.065 32.468 542.335 32.594C542.611 32.72 542.923 32.837 543.271 32.945C543.625 33.047 543.985 33.164 544.351 33.296C544.717 33.422 545.074 33.572 545.422 33.746C545.776 33.92 546.088 34.142 546.358 34.412C546.634 34.682 546.856 35.012 547.024 35.402C547.192 35.786 547.276 36.251 547.276 36.797C547.276 37.403 547.171 37.97 546.961 38.498C546.751 39.026 546.445 39.488 546.043 39.884C545.647 40.274 545.155 40.583 544.567 40.811C543.985 41.033 543.322 41.144 542.578 41.144C542.17 41.144 541.753 41.102 541.327 41.018C540.907 40.934 540.499 40.817 540.103 40.667C539.707 40.511 539.335 40.328 538.987 40.118C538.639 39.908 538.336 39.674 538.078 39.416L538.978 37.994C539.05 37.892 539.143 37.808 539.257 37.742C539.377 37.67 539.506 37.634 539.644 37.634C539.824 37.634 540.004 37.691 540.184 37.805C540.37 37.919 540.577 38.045 540.805 38.183C541.039 38.321 541.306 38.447 541.606 38.561C541.906 38.675 542.26 38.732 542.668 38.732C543.22 38.732 543.649 38.612 543.955 38.372C544.261 38.126 544.414 37.739 544.414 37.211C544.414 36.905 544.33 36.656 544.162 36.464C543.994 36.272 543.772 36.113 543.496 35.987C543.226 35.861 542.917 35.75 542.569 35.654C542.221 35.558 541.864 35.453 541.498 35.339C541.132 35.219 540.775 35.075 540.427 34.907C540.079 34.733 539.767 34.508 539.491 34.232C539.221 33.95 539.002 33.602 538.834 33.188C538.666 32.768 538.582 32.252 538.582 31.64C538.582 31.148 538.681 30.668 538.879 30.2C539.077 29.732 539.368 29.315 539.752 28.949C540.136 28.583 540.607 28.292 541.165 28.076C541.723 27.854 542.362 27.743 543.082 27.743C543.484 27.743 543.874 27.776 544.252 27.842C544.636 27.902 544.999 27.995 545.341 28.121C545.683 28.241 546.001 28.388 546.295 28.562C546.595 28.73 546.862 28.922 547.096 29.138L546.34 30.551Z" fill="#00552B"/>
</svg>
